<?xml version="1.0" encoding="utf-8"?>
<!-- Generator: Adobe Illustrator 27.3.1, SVG Export Plug-In . SVG Version: 6.00 Build 0)  -->
<svg version="1.1" xmlns="http://www.w3.org/2000/svg" xmlns:xlink="http://www.w3.org/1999/xlink" x="0px" y="0px"
	 viewBox="0 0 1080 1920" style="enable-background:new 0 0 1080 1920;" xml:space="preserve">
<style type="text/css">
	.st0{display:none;}
	.st1{display:inline;fill:#F8F7F0;}
	.st2{display:inline;}
	.st3{fill:#231F20;}
	.st4{display:inline;fill:#D1DFAE;}
	.st5{fill:#979799;}
	.st6{display:inline;fill:#ECAA78;}
	.st7{fill:#F5DF4D;}
	.st8{fill:#E5E9EC;}
	.st9{fill:#81665A;}
	.st10{display:inline;fill:#79A1BB;}
	.st11{fill:#DAD6D5;}
	.st12{display:inline;fill:#414042;}
	.st13{fill:#E9C1A8;}
	.st14{display:inline;fill:#557053;}
	.st15{fill:#DCCA9A;}
</style>
<g id="base" class="st0">
	<rect id="BACK_00000058563923379340981320000004734677315670295452_" class="st1" width="1080" height="1920"/>
	<g id="TXT_00000143601563501454290110000005341672980554389145_" class="st2">
		<g>
			<path class="st3" d="M1001.5,1720l-20.6-60.1h-77.1l-21.1,60.1h-27.2l71.3-200h32.9l70.2,200H1001.5z M943,1547.4l-32.9,91.1
				h63.6L943,1547.4z"/>
		</g>
		<g>
			<path class="st3" d="M248.1,250h-28L174,85.7L129.3,250h-28L50,50h28.5l37.6,162.4L160.6,50H188l45.5,162.4L270.3,50h28.5
				L248.1,250z"/>
			<path class="st3" d="M491.4,250V82.4L435.2,250h-26.9L351.5,82.4V250h-24.1V50h35.4L422,224.2L480.2,50h35.4v200H491.4z"/>
		</g>
		<g>
			<path class="st3" d="M100,300.6h10.1c5.7,0,9.2,2.8,9.2,7.4c0,2.5-1,4.4-2.9,5.5c1,0.8,1.6,2,2,3.6l1.7,7.3h-6.6l-1.3-6.1
				c-0.4-1.9-1-2.3-2.7-2.3h-3.2v8.4H100V300.6z M106.4,305.7v5.4h3.4c2.1,0,3-1.1,3-2.7c0-1.6-0.9-2.7-2.8-2.7H106.4z"/>
			<path class="st3" d="M123.2,300.6h17.4v5h-11v4.2h9.6v4.9h-9.6v4.6h11v5h-17.4V300.6z"/>
			<path class="st3" d="M142.9,312.3h9.8v5.1h-9.8V312.3z"/>
			<path class="st3" d="M159,305.8h-7.1v-5.2h20.6v5.2h-7.1v18.6H159V305.8z"/>
			<path class="st3" d="M175.5,300.6h6.4v9h8.3v-9h6.4v23.7h-6.4v-9.5h-8.3v9.5h-6.4V300.6z"/>
			<path class="st3" d="M200.7,300.6h6.4v23.7h-6.4V300.6z"/>
			<path class="st3" d="M211.2,300.6h6.7l6.4,11.1l2,4.2l-0.3-15.3h6.4v23.7h-6.7l-6.4-11.1l-1.9-4.2l0.3,15.3h-6.4V300.6z"/>
			<path class="st3" d="M236.4,300.6h6.4v11l8-11h7.2l-8.8,11.7l9.5,12.1h-7.8l-8-10.5v10.5h-6.4V300.6z"/>
			<path class="st3" d="M260.9,300.6h6.4v23.7h-6.4V300.6z"/>
			<path class="st3" d="M271.4,300.6h6.7l6.4,11.1l2,4.2l-0.3-15.3h6.4v23.7h-6.7l-6.4-11.1l-1.9-4.2l0.3,15.3h-6.4V300.6z"/>
			<path class="st3" d="M314.1,324.4l-0.5-2.4c-1.5,2-3.8,3-6.5,3c-6.7,0-11.2-4.7-11.2-12.5c0-7.7,4.5-12.5,11.8-12.5
				c5.3,0,9.7,2.9,10.7,8.5h-6.7c-0.6-2.2-2.1-3.3-4.2-3.3c-3.2,0-5.1,2.8-5.1,7.3c0,4.6,2,7.3,5.3,7.3c2.3,0,4.2-1.1,4.6-3.8h-4
				v-4.7h10.1v13.1H314.1z"/>
		</g>
		<g>
			<path class="st3" d="M857.9,1770.6H868c5.7,0,9.2,2.8,9.2,7.4c0,2.5-1,4.4-2.9,5.5c1,0.8,1.6,2,2,3.6l1.7,7.3h-6.6l-1.3-6.1
				c-0.4-1.9-1-2.3-2.7-2.3h-3.2v8.4h-6.4V1770.6z M864.3,1775.7v5.4h3.4c2.1,0,3-1.1,3-2.7c0-1.6-0.9-2.7-2.8-2.7H864.3z"/>
			<path class="st3" d="M881.1,1770.6h17.4v5h-11v4.2h9.6v4.9h-9.6v4.6h11v5h-17.4V1770.6z"/>
			<path class="st3" d="M916.5,1790.3h-8.6l-1.4,4.1h-6.4l8.5-23.7h7.6l8.5,23.7h-6.8L916.5,1790.3z M909.6,1785.5h5.4l-2-5.8
				l-0.7-2.8l-0.7,2.8L909.6,1785.5z"/>
			<path class="st3" d="M927,1770.6h6.4v18.6h9.9v5.2H927V1770.6z"/>
			<path class="st3" d="M946.3,1770.6h6.4v23.7h-6.4V1770.6z"/>
			<path class="st3" d="M962.7,1775.8h-7.1v-5.2h20.6v5.2h-7.1v18.6h-6.4V1775.8z"/>
			<path class="st3" d="M979.2,1770.6h6.4v23.7h-6.4V1770.6z"/>
			<path class="st3" d="M989.7,1770.6h17.4v5h-11v4.2h9.6v4.9h-9.6v4.6h11v5h-17.4V1770.6z"/>
			<path class="st3" d="M1030,1787.1c0,5-4.2,7.9-9.9,7.9c-5.8,0-10-2.7-10.8-8.3h6.7c0.4,2.2,1.9,3.4,4.1,3.4
				c2.2,0,3.3-0.8,3.3-2.2c0-4.7-13.8-1.1-13.8-10.4c0-4.2,3.4-7.5,9.5-7.5c5,0,9.5,2.4,10.2,8h-6.8c-0.4-2.1-1.6-3.1-3.6-3.1
				c-1.6,0-2.7,0.7-2.7,1.9C1016.2,1781.4,1030,1777.4,1030,1787.1z"/>
		</g>
	</g>
</g>
<g id="green" class="st0">
	<rect id="BACK" class="st4" width="1080" height="1920"/>
	<g id="TXT" class="st2">
		<g>
			<path class="st5" d="M1001.5,1720l-20.6-60.1h-77.1l-21.1,60.1h-27.2l71.3-200h32.9l70.2,200H1001.5z M943,1547.4l-32.9,91.1
				h63.6L943,1547.4z"/>
		</g>
		<g>
			<path class="st5" d="M248.1,250h-28L174,85.7L129.3,250h-28L50,50h28.5l37.6,162.4L160.6,50H188l45.5,162.4L270.3,50h28.5
				L248.1,250z"/>
			<path class="st5" d="M491.4,250V82.4L435.2,250h-26.9L351.5,82.4V250h-24.1V50h35.4L422,224.2L480.2,50h35.4v200H491.4z"/>
		</g>
		<g>
			<path class="st5" d="M100,300.6h10.1c5.7,0,9.2,2.8,9.2,7.4c0,2.5-1,4.4-2.9,5.5c1,0.8,1.6,2,2,3.6l1.7,7.3h-6.6l-1.3-6.1
				c-0.4-1.9-1-2.3-2.7-2.3h-3.2v8.4H100V300.6z M106.4,305.7v5.4h3.4c2.1,0,3-1.1,3-2.7c0-1.6-0.9-2.7-2.8-2.7H106.4z"/>
			<path class="st5" d="M123.2,300.6h17.4v5h-11v4.2h9.6v4.9h-9.6v4.6h11v5h-17.4V300.6z"/>
			<path class="st5" d="M142.9,312.3h9.8v5.1h-9.8V312.3z"/>
			<path class="st5" d="M159,305.8h-7.1v-5.2h20.6v5.2h-7.1v18.6H159V305.8z"/>
			<path class="st5" d="M175.5,300.6h6.4v9h8.3v-9h6.4v23.7h-6.4v-9.5h-8.3v9.5h-6.4V300.6z"/>
			<path class="st5" d="M200.7,300.6h6.4v23.7h-6.4V300.6z"/>
			<path class="st5" d="M211.2,300.6h6.7l6.4,11.1l2,4.2l-0.3-15.3h6.4v23.7h-6.7l-6.4-11.1l-1.9-4.2l0.3,15.3h-6.4V300.6z"/>
			<path class="st5" d="M236.4,300.6h6.4v11l8-11h7.2l-8.8,11.7l9.5,12.1h-7.8l-8-10.5v10.5h-6.4V300.6z"/>
			<path class="st5" d="M260.9,300.6h6.4v23.7h-6.4V300.6z"/>
			<path class="st5" d="M271.4,300.6h6.7l6.4,11.1l2,4.2l-0.3-15.3h6.4v23.7h-6.7l-6.4-11.1l-1.9-4.2l0.3,15.3h-6.4V300.6z"/>
			<path class="st5" d="M314.1,324.4l-0.5-2.4c-1.5,2-3.8,3-6.5,3c-6.7,0-11.2-4.7-11.2-12.5c0-7.7,4.5-12.5,11.8-12.5
				c5.3,0,9.7,2.9,10.7,8.5h-6.7c-0.6-2.2-2.1-3.3-4.2-3.3c-3.2,0-5.1,2.8-5.1,7.3c0,4.6,2,7.3,5.3,7.3c2.3,0,4.2-1.1,4.6-3.8h-4
				v-4.7h10.1v13.1H314.1z"/>
		</g>
		<g>
			<path class="st5" d="M857.9,1770.6H868c5.7,0,9.2,2.8,9.2,7.4c0,2.5-1,4.4-2.9,5.5c1,0.8,1.6,2,2,3.6l1.7,7.3h-6.6l-1.3-6.1
				c-0.4-1.9-1-2.3-2.7-2.3h-3.2v8.4h-6.4V1770.6z M864.3,1775.7v5.4h3.4c2.1,0,3-1.1,3-2.7c0-1.6-0.9-2.7-2.8-2.7H864.3z"/>
			<path class="st5" d="M881.1,1770.6h17.4v5h-11v4.2h9.6v4.9h-9.6v4.6h11v5h-17.4V1770.6z"/>
			<path class="st5" d="M916.5,1790.3h-8.6l-1.4,4.1h-6.4l8.5-23.7h7.6l8.5,23.7h-6.8L916.5,1790.3z M909.6,1785.5h5.4l-2-5.8
				l-0.7-2.8l-0.7,2.8L909.6,1785.5z"/>
			<path class="st5" d="M927,1770.6h6.4v18.6h9.9v5.2H927V1770.6z"/>
			<path class="st5" d="M946.3,1770.6h6.4v23.7h-6.4V1770.6z"/>
			<path class="st5" d="M962.7,1775.8h-7.1v-5.2h20.6v5.2h-7.1v18.6h-6.4V1775.8z"/>
			<path class="st5" d="M979.2,1770.6h6.4v23.7h-6.4V1770.6z"/>
			<path class="st5" d="M989.7,1770.6h17.4v5h-11v4.2h9.6v4.9h-9.6v4.6h11v5h-17.4V1770.6z"/>
			<path class="st5" d="M1030,1787.1c0,5-4.2,7.9-9.9,7.9c-5.8,0-10-2.7-10.8-8.3h6.7c0.4,2.2,1.9,3.4,4.1,3.4
				c2.2,0,3.3-0.8,3.3-2.2c0-4.7-13.8-1.1-13.8-10.4c0-4.2,3.4-7.5,9.5-7.5c5,0,9.5,2.4,10.2,8h-6.8c-0.4-2.1-1.6-3.1-3.6-3.1
				c-1.6,0-2.7,0.7-2.7,1.9C1016.2,1781.4,1030,1777.4,1030,1787.1z"/>
		</g>
	</g>
</g>
<g id="papaya" class="st0">
	<rect id="BACK_00000056422522803888028470000011400199134568482972_" class="st6" width="1080" height="1920"/>
	<g id="TXT_00000111173097692322059170000016618293651062989190_" class="st2">
		<g>
			<path class="st7" d="M1001.5,1720l-20.6-60.1h-77.1l-21.1,60.1h-27.2l71.3-200h32.9l70.2,200H1001.5z M943,1547.4l-32.9,91.1
				h63.6L943,1547.4z"/>
		</g>
		<g>
			<path class="st7" d="M248.1,250h-28L174,85.7L129.3,250h-28L50,50h28.5l37.6,162.4L160.6,50H188l45.5,162.4L270.3,50h28.5
				L248.1,250z"/>
			<path class="st7" d="M491.4,250V82.4L435.2,250h-26.9L351.5,82.4V250h-24.1V50h35.4L422,224.2L480.2,50h35.4v200H491.4z"/>
		</g>
		<g>
			<path class="st7" d="M100,300.6h10.1c5.7,0,9.2,2.8,9.2,7.4c0,2.5-1,4.4-2.9,5.5c1,0.8,1.6,2,2,3.6l1.7,7.3h-6.6l-1.3-6.1
				c-0.4-1.9-1-2.3-2.7-2.3h-3.2v8.4H100V300.6z M106.4,305.7v5.4h3.4c2.1,0,3-1.1,3-2.7c0-1.6-0.9-2.7-2.8-2.7H106.4z"/>
			<path class="st7" d="M123.2,300.6h17.4v5h-11v4.2h9.6v4.9h-9.6v4.6h11v5h-17.4V300.6z"/>
			<path class="st7" d="M142.9,312.3h9.8v5.1h-9.8V312.3z"/>
			<path class="st7" d="M159,305.8h-7.1v-5.2h20.6v5.2h-7.1v18.6H159V305.8z"/>
			<path class="st7" d="M175.5,300.6h6.4v9h8.3v-9h6.4v23.7h-6.4v-9.5h-8.3v9.5h-6.4V300.6z"/>
			<path class="st7" d="M200.7,300.6h6.4v23.7h-6.4V300.6z"/>
			<path class="st7" d="M211.2,300.6h6.7l6.4,11.1l2,4.2l-0.3-15.3h6.4v23.7h-6.7l-6.4-11.1l-1.9-4.2l0.3,15.3h-6.4V300.6z"/>
			<path class="st7" d="M236.4,300.6h6.4v11l8-11h7.2l-8.8,11.7l9.5,12.1h-7.8l-8-10.5v10.5h-6.4V300.6z"/>
			<path class="st7" d="M260.9,300.6h6.4v23.7h-6.4V300.6z"/>
			<path class="st7" d="M271.4,300.6h6.7l6.4,11.1l2,4.2l-0.3-15.3h6.4v23.7h-6.7l-6.4-11.1l-1.9-4.2l0.3,15.3h-6.4V300.6z"/>
			<path class="st7" d="M314.1,324.4l-0.5-2.4c-1.5,2-3.8,3-6.5,3c-6.7,0-11.2-4.7-11.2-12.5c0-7.7,4.5-12.5,11.8-12.5
				c5.3,0,9.7,2.9,10.7,8.5h-6.7c-0.6-2.2-2.1-3.3-4.2-3.3c-3.2,0-5.1,2.8-5.1,7.3c0,4.6,2,7.3,5.3,7.3c2.3,0,4.2-1.1,4.6-3.8h-4
				v-4.7h10.1v13.1H314.1z"/>
		</g>
		<g>
			<path class="st7" d="M857.9,1770.6H868c5.7,0,9.2,2.8,9.2,7.4c0,2.5-1,4.4-2.9,5.5c1,0.8,1.6,2,2,3.6l1.7,7.3h-6.6l-1.3-6.1
				c-0.4-1.9-1-2.3-2.7-2.3h-3.2v8.4h-6.4V1770.6z M864.3,1775.7v5.4h3.4c2.1,0,3-1.1,3-2.7c0-1.6-0.9-2.7-2.8-2.7H864.3z"/>
			<path class="st7" d="M881.1,1770.6h17.4v5h-11v4.2h9.6v4.9h-9.6v4.6h11v5h-17.4V1770.6z"/>
			<path class="st7" d="M916.5,1790.3h-8.6l-1.4,4.1h-6.4l8.5-23.7h7.6l8.5,23.7h-6.8L916.5,1790.3z M909.6,1785.5h5.4l-2-5.8
				l-0.7-2.8l-0.7,2.8L909.6,1785.5z"/>
			<path class="st7" d="M927,1770.6h6.4v18.6h9.9v5.2H927V1770.6z"/>
			<path class="st7" d="M946.3,1770.6h6.4v23.7h-6.4V1770.6z"/>
			<path class="st7" d="M962.7,1775.8h-7.1v-5.2h20.6v5.2h-7.1v18.6h-6.4V1775.8z"/>
			<path class="st7" d="M979.2,1770.6h6.4v23.7h-6.4V1770.6z"/>
			<path class="st7" d="M989.7,1770.6h17.4v5h-11v4.2h9.6v4.9h-9.6v4.6h11v5h-17.4V1770.6z"/>
			<path class="st7" d="M1030,1787.1c0,5-4.2,7.9-9.9,7.9c-5.8,0-10-2.7-10.8-8.3h6.7c0.4,2.2,1.9,3.4,4.1,3.4
				c2.2,0,3.3-0.8,3.3-2.2c0-4.7-13.8-1.1-13.8-10.4c0-4.2,3.4-7.5,9.5-7.5c5,0,9.5,2.4,10.2,8h-6.8c-0.4-2.1-1.6-3.1-3.6-3.1
				c-1.6,0-2.7,0.7-2.7,1.9C1016.2,1781.4,1030,1777.4,1030,1787.1z"/>
		</g>
	</g>
</g>
<g id="blue1">
	<rect id="BACK_00000177475340441347534350000010941024904577092008_" class="st8" width="1080" height="1920"/>
	<g id="TXT_00000037679397581916973580000000207656296355562631_">
		<g>
			<path class="st9" d="M1001.5,1720l-20.6-60.1h-77.1l-21.1,60.1h-27.2l71.3-200h32.9l70.2,200H1001.5z M943,1547.4l-32.9,91.1
				h63.6L943,1547.4z"/>
		</g>
		<g>
			<path class="st9" d="M248.1,250h-28L174,85.7L129.3,250h-28L50,50h28.5l37.6,162.4L160.6,50H188l45.5,162.4L270.3,50h28.5
				L248.1,250z"/>
			<path class="st9" d="M491.4,250V82.4L435.2,250h-26.9L351.5,82.4V250h-24.1V50h35.4L422,224.2L480.2,50h35.4v200H491.4z"/>
		</g>
		<g>
			<path class="st9" d="M100,300.6h10.1c5.7,0,9.2,2.8,9.2,7.4c0,2.5-1,4.4-2.9,5.5c1,0.8,1.6,2,2,3.6l1.7,7.3h-6.6l-1.3-6.1
				c-0.4-1.9-1-2.3-2.7-2.3h-3.2v8.4H100V300.6z M106.4,305.7v5.4h3.4c2.1,0,3-1.1,3-2.7c0-1.6-0.9-2.7-2.8-2.7H106.4z"/>
			<path class="st9" d="M123.2,300.6h17.4v5h-11v4.2h9.6v4.9h-9.6v4.6h11v5h-17.4V300.6z"/>
			<path class="st9" d="M142.9,312.3h9.8v5.1h-9.8V312.3z"/>
			<path class="st9" d="M159,305.8h-7.1v-5.2h20.6v5.2h-7.1v18.6H159V305.8z"/>
			<path class="st9" d="M175.5,300.6h6.4v9h8.3v-9h6.4v23.7h-6.4v-9.5h-8.3v9.5h-6.4V300.6z"/>
			<path class="st9" d="M200.7,300.6h6.4v23.7h-6.4V300.6z"/>
			<path class="st9" d="M211.2,300.6h6.7l6.4,11.1l2,4.2l-0.3-15.3h6.4v23.7h-6.7l-6.4-11.1l-1.9-4.2l0.3,15.3h-6.4V300.6z"/>
			<path class="st9" d="M236.4,300.6h6.4v11l8-11h7.2l-8.8,11.7l9.5,12.1h-7.8l-8-10.5v10.5h-6.4V300.6z"/>
			<path class="st9" d="M260.9,300.6h6.4v23.7h-6.4V300.6z"/>
			<path class="st9" d="M271.4,300.6h6.7l6.4,11.1l2,4.2l-0.3-15.3h6.4v23.7h-6.7l-6.4-11.1l-1.9-4.2l0.3,15.3h-6.4V300.6z"/>
			<path class="st9" d="M314.1,324.4l-0.5-2.4c-1.5,2-3.8,3-6.5,3c-6.7,0-11.2-4.7-11.2-12.5c0-7.7,4.5-12.5,11.8-12.5
				c5.3,0,9.7,2.9,10.7,8.5h-6.7c-0.6-2.2-2.1-3.3-4.2-3.3c-3.2,0-5.1,2.8-5.1,7.3c0,4.6,2,7.3,5.3,7.3c2.3,0,4.2-1.1,4.6-3.8h-4
				v-4.7h10.1v13.1H314.1z"/>
		</g>
		<g>
			<path class="st9" d="M857.9,1770.6H868c5.7,0,9.2,2.8,9.2,7.4c0,2.5-1,4.4-2.9,5.5c1,0.8,1.6,2,2,3.6l1.7,7.3h-6.6l-1.3-6.1
				c-0.4-1.9-1-2.3-2.7-2.3h-3.2v8.4h-6.4V1770.6z M864.3,1775.7v5.4h3.4c2.1,0,3-1.1,3-2.7c0-1.6-0.9-2.7-2.8-2.7H864.3z"/>
			<path class="st9" d="M881.1,1770.6h17.4v5h-11v4.2h9.6v4.9h-9.6v4.6h11v5h-17.4V1770.6z"/>
			<path class="st9" d="M916.5,1790.3h-8.6l-1.4,4.1h-6.4l8.5-23.7h7.6l8.5,23.7h-6.8L916.5,1790.3z M909.6,1785.5h5.4l-2-5.8
				l-0.7-2.8l-0.7,2.8L909.6,1785.5z"/>
			<path class="st9" d="M927,1770.6h6.4v18.6h9.9v5.2H927V1770.6z"/>
			<path class="st9" d="M946.3,1770.6h6.4v23.7h-6.4V1770.6z"/>
			<path class="st9" d="M962.7,1775.8h-7.1v-5.2h20.6v5.2h-7.1v18.6h-6.4V1775.8z"/>
			<path class="st9" d="M979.2,1770.6h6.4v23.7h-6.4V1770.6z"/>
			<path class="st9" d="M989.7,1770.6h17.4v5h-11v4.2h9.6v4.9h-9.6v4.6h11v5h-17.4V1770.6z"/>
			<path class="st9" d="M1030,1787.1c0,5-4.2,7.9-9.9,7.9c-5.8,0-10-2.7-10.8-8.3h6.7c0.4,2.2,1.9,3.4,4.1,3.4
				c2.2,0,3.3-0.8,3.3-2.2c0-4.7-13.8-1.1-13.8-10.4c0-4.2,3.4-7.5,9.5-7.5c5,0,9.5,2.4,10.2,8h-6.8c-0.4-2.1-1.6-3.1-3.6-3.1
				c-1.6,0-2.7,0.7-2.7,1.9C1016.2,1781.4,1030,1777.4,1030,1787.1z"/>
		</g>
	</g>
</g>
<g id="blue2" class="st0">
	<rect id="BACK_00000065756117289798609520000013310747661979459004_" class="st10" width="1080" height="1920"/>
	<g id="TXT_00000055695532088528437460000016336372800147196081_" class="st2">
		<g>
			<path class="st11" d="M1001.5,1720l-20.6-60.1h-77.1l-21.1,60.1h-27.2l71.3-200h32.9l70.2,200H1001.5z M943,1547.4l-32.9,91.1
				h63.6L943,1547.4z"/>
		</g>
		<g>
			<path class="st11" d="M248.1,250h-28L174,85.7L129.3,250h-28L50,50h28.5l37.6,162.4L160.6,50H188l45.5,162.4L270.3,50h28.5
				L248.1,250z"/>
			<path class="st11" d="M491.4,250V82.4L435.2,250h-26.9L351.5,82.4V250h-24.1V50h35.4L422,224.2L480.2,50h35.4v200H491.4z"/>
		</g>
		<g>
			<path class="st11" d="M100,300.6h10.1c5.7,0,9.2,2.8,9.2,7.4c0,2.5-1,4.4-2.9,5.5c1,0.8,1.6,2,2,3.6l1.7,7.3h-6.6l-1.3-6.1
				c-0.4-1.9-1-2.3-2.7-2.3h-3.2v8.4H100V300.6z M106.4,305.7v5.4h3.4c2.1,0,3-1.1,3-2.7c0-1.6-0.9-2.7-2.8-2.7H106.4z"/>
			<path class="st11" d="M123.2,300.6h17.4v5h-11v4.2h9.6v4.9h-9.6v4.6h11v5h-17.4V300.6z"/>
			<path class="st11" d="M142.9,312.3h9.8v5.1h-9.8V312.3z"/>
			<path class="st11" d="M159,305.8h-7.1v-5.2h20.6v5.2h-7.1v18.6H159V305.8z"/>
			<path class="st11" d="M175.5,300.6h6.4v9h8.3v-9h6.4v23.7h-6.4v-9.5h-8.3v9.5h-6.4V300.6z"/>
			<path class="st11" d="M200.7,300.6h6.4v23.7h-6.4V300.6z"/>
			<path class="st11" d="M211.2,300.6h6.7l6.4,11.1l2,4.2l-0.3-15.3h6.4v23.7h-6.7l-6.4-11.1l-1.9-4.2l0.3,15.3h-6.4V300.6z"/>
			<path class="st11" d="M236.4,300.6h6.4v11l8-11h7.2l-8.8,11.7l9.5,12.1h-7.8l-8-10.5v10.5h-6.4V300.6z"/>
			<path class="st11" d="M260.9,300.6h6.4v23.7h-6.4V300.6z"/>
			<path class="st11" d="M271.4,300.6h6.7l6.4,11.1l2,4.2l-0.3-15.3h6.4v23.7h-6.7l-6.4-11.1l-1.9-4.2l0.3,15.3h-6.4V300.6z"/>
			<path class="st11" d="M314.1,324.4l-0.5-2.4c-1.5,2-3.8,3-6.5,3c-6.7,0-11.2-4.7-11.2-12.5c0-7.7,4.5-12.5,11.8-12.5
				c5.3,0,9.7,2.9,10.7,8.5h-6.7c-0.6-2.2-2.1-3.3-4.2-3.3c-3.2,0-5.1,2.8-5.1,7.3c0,4.6,2,7.3,5.3,7.3c2.3,0,4.2-1.1,4.6-3.8h-4
				v-4.7h10.1v13.1H314.1z"/>
		</g>
		<g>
			<path class="st11" d="M857.9,1770.6H868c5.7,0,9.2,2.8,9.2,7.4c0,2.5-1,4.4-2.9,5.5c1,0.8,1.6,2,2,3.6l1.7,7.3h-6.6l-1.3-6.1
				c-0.4-1.9-1-2.3-2.7-2.3h-3.2v8.4h-6.4V1770.6z M864.3,1775.7v5.4h3.4c2.1,0,3-1.1,3-2.7c0-1.6-0.9-2.7-2.8-2.7H864.3z"/>
			<path class="st11" d="M881.1,1770.6h17.4v5h-11v4.2h9.6v4.9h-9.6v4.6h11v5h-17.4V1770.6z"/>
			<path class="st11" d="M916.5,1790.3h-8.6l-1.4,4.1h-6.4l8.5-23.7h7.6l8.5,23.7h-6.8L916.5,1790.3z M909.6,1785.5h5.4l-2-5.8
				l-0.7-2.8l-0.7,2.8L909.6,1785.5z"/>
			<path class="st11" d="M927,1770.6h6.4v18.6h9.9v5.2H927V1770.6z"/>
			<path class="st11" d="M946.3,1770.6h6.4v23.7h-6.4V1770.6z"/>
			<path class="st11" d="M962.7,1775.8h-7.1v-5.2h20.6v5.2h-7.1v18.6h-6.4V1775.8z"/>
			<path class="st11" d="M979.2,1770.6h6.4v23.7h-6.4V1770.6z"/>
			<path class="st11" d="M989.7,1770.6h17.4v5h-11v4.2h9.6v4.9h-9.6v4.6h11v5h-17.4V1770.6z"/>
			<path class="st11" d="M1030,1787.1c0,5-4.2,7.9-9.9,7.9c-5.8,0-10-2.7-10.8-8.3h6.7c0.4,2.2,1.9,3.4,4.1,3.4
				c2.2,0,3.3-0.8,3.3-2.2c0-4.7-13.8-1.1-13.8-10.4c0-4.2,3.4-7.5,9.5-7.5c5,0,9.5,2.4,10.2,8h-6.8c-0.4-2.1-1.6-3.1-3.6-3.1
				c-1.6,0-2.7,0.7-2.7,1.9C1016.2,1781.4,1030,1777.4,1030,1787.1z"/>
		</g>
	</g>
</g>
<g id="grey" class="st0">
	<rect id="BACK_00000095322302813754997580000009340087638500509589_" class="st12" width="1080" height="1920"/>
	<g id="TXT_00000072238379888004129990000017132215731922714811_" class="st2">
		<g>
			<path class="st13" d="M1001.5,1720l-20.6-60.1h-77.1l-21.1,60.1h-27.2l71.3-200h32.9l70.2,200H1001.5z M943,1547.4l-32.9,91.1
				h63.6L943,1547.4z"/>
		</g>
		<g>
			<path class="st13" d="M248.1,250h-28L174,85.7L129.3,250h-28L50,50h28.5l37.6,162.4L160.6,50H188l45.5,162.4L270.3,50h28.5
				L248.1,250z"/>
			<path class="st13" d="M491.4,250V82.4L435.2,250h-26.9L351.5,82.4V250h-24.1V50h35.4L422,224.2L480.2,50h35.4v200H491.4z"/>
		</g>
		<g>
			<path class="st13" d="M100,300.6h10.1c5.7,0,9.2,2.8,9.2,7.4c0,2.5-1,4.4-2.9,5.5c1,0.8,1.6,2,2,3.6l1.7,7.3h-6.6l-1.3-6.1
				c-0.4-1.9-1-2.3-2.7-2.3h-3.2v8.4H100V300.6z M106.4,305.7v5.4h3.4c2.1,0,3-1.1,3-2.7c0-1.6-0.9-2.7-2.8-2.7H106.4z"/>
			<path class="st13" d="M123.2,300.6h17.4v5h-11v4.2h9.6v4.9h-9.6v4.6h11v5h-17.4V300.6z"/>
			<path class="st13" d="M142.9,312.3h9.8v5.1h-9.8V312.3z"/>
			<path class="st13" d="M159,305.8h-7.1v-5.2h20.6v5.2h-7.1v18.6H159V305.8z"/>
			<path class="st13" d="M175.5,300.6h6.4v9h8.3v-9h6.4v23.7h-6.4v-9.5h-8.3v9.5h-6.4V300.6z"/>
			<path class="st13" d="M200.7,300.6h6.4v23.7h-6.4V300.6z"/>
			<path class="st13" d="M211.2,300.6h6.7l6.4,11.1l2,4.2l-0.3-15.3h6.4v23.7h-6.7l-6.4-11.1l-1.9-4.2l0.3,15.3h-6.4V300.6z"/>
			<path class="st13" d="M236.4,300.6h6.4v11l8-11h7.2l-8.8,11.7l9.5,12.1h-7.8l-8-10.5v10.5h-6.4V300.6z"/>
			<path class="st13" d="M260.9,300.6h6.4v23.7h-6.4V300.6z"/>
			<path class="st13" d="M271.4,300.6h6.7l6.4,11.1l2,4.2l-0.3-15.3h6.4v23.7h-6.7l-6.4-11.1l-1.9-4.2l0.3,15.3h-6.4V300.6z"/>
			<path class="st13" d="M314.1,324.4l-0.5-2.4c-1.5,2-3.8,3-6.5,3c-6.7,0-11.2-4.7-11.2-12.5c0-7.7,4.5-12.5,11.8-12.5
				c5.3,0,9.7,2.9,10.7,8.5h-6.7c-0.6-2.2-2.1-3.3-4.2-3.3c-3.2,0-5.1,2.8-5.1,7.3c0,4.6,2,7.3,5.3,7.3c2.3,0,4.2-1.1,4.6-3.8h-4
				v-4.7h10.1v13.1H314.1z"/>
		</g>
		<g>
			<path class="st13" d="M857.9,1770.6H868c5.7,0,9.2,2.8,9.2,7.4c0,2.5-1,4.4-2.9,5.5c1,0.8,1.6,2,2,3.6l1.7,7.3h-6.6l-1.3-6.1
				c-0.4-1.9-1-2.3-2.7-2.3h-3.2v8.4h-6.4V1770.6z M864.3,1775.7v5.4h3.4c2.1,0,3-1.1,3-2.7c0-1.6-0.9-2.7-2.8-2.7H864.3z"/>
			<path class="st13" d="M881.1,1770.6h17.4v5h-11v4.2h9.6v4.9h-9.6v4.6h11v5h-17.4V1770.6z"/>
			<path class="st13" d="M916.5,1790.3h-8.6l-1.4,4.1h-6.4l8.5-23.7h7.6l8.5,23.7h-6.8L916.5,1790.3z M909.6,1785.5h5.4l-2-5.8
				l-0.7-2.8l-0.7,2.8L909.6,1785.5z"/>
			<path class="st13" d="M927,1770.6h6.4v18.6h9.9v5.2H927V1770.6z"/>
			<path class="st13" d="M946.3,1770.6h6.4v23.7h-6.4V1770.6z"/>
			<path class="st13" d="M962.7,1775.8h-7.1v-5.2h20.6v5.2h-7.1v18.6h-6.4V1775.8z"/>
			<path class="st13" d="M979.2,1770.6h6.4v23.7h-6.4V1770.6z"/>
			<path class="st13" d="M989.7,1770.6h17.4v5h-11v4.2h9.6v4.9h-9.6v4.6h11v5h-17.4V1770.6z"/>
			<path class="st13" d="M1030,1787.1c0,5-4.2,7.9-9.9,7.9c-5.8,0-10-2.7-10.8-8.3h6.7c0.4,2.2,1.9,3.4,4.1,3.4
				c2.2,0,3.3-0.8,3.3-2.2c0-4.7-13.8-1.1-13.8-10.4c0-4.2,3.4-7.5,9.5-7.5c5,0,9.5,2.4,10.2,8h-6.8c-0.4-2.1-1.6-3.1-3.6-3.1
				c-1.6,0-2.7,0.7-2.7,1.9C1016.2,1781.4,1030,1777.4,1030,1787.1z"/>
		</g>
	</g>
</g>
<g id="green2" class="st0">
	<rect id="BACK_00000132068780511176337630000011486987465868283312_" class="st14" width="1080" height="1920"/>
	<g id="TXT_00000015352509585418004770000004708367412131254719_" class="st2">
		<g>
			<path class="st15" d="M1001.5,1720l-20.6-60.1h-77.1l-21.1,60.1h-27.2l71.3-200h32.9l70.2,200H1001.5z M943,1547.4l-32.9,91.1
				h63.6L943,1547.4z"/>
		</g>
		<g>
			<path class="st15" d="M248.1,250h-28L174,85.7L129.3,250h-28L50,50h28.5l37.6,162.4L160.6,50H188l45.5,162.4L270.3,50h28.5
				L248.1,250z"/>
			<path class="st15" d="M491.4,250V82.4L435.2,250h-26.9L351.5,82.4V250h-24.1V50h35.4L422,224.2L480.2,50h35.4v200H491.4z"/>
		</g>
		<g>
			<path class="st15" d="M100,300.6h10.1c5.7,0,9.2,2.8,9.2,7.4c0,2.5-1,4.4-2.9,5.5c1,0.8,1.6,2,2,3.6l1.7,7.3h-6.6l-1.3-6.1
				c-0.4-1.9-1-2.3-2.7-2.3h-3.2v8.4H100V300.6z M106.4,305.7v5.4h3.4c2.1,0,3-1.1,3-2.7c0-1.6-0.9-2.7-2.8-2.7H106.4z"/>
			<path class="st15" d="M123.2,300.6h17.4v5h-11v4.2h9.6v4.9h-9.6v4.6h11v5h-17.4V300.6z"/>
			<path class="st15" d="M142.9,312.3h9.8v5.1h-9.8V312.3z"/>
			<path class="st15" d="M159,305.8h-7.1v-5.2h20.6v5.2h-7.1v18.6H159V305.8z"/>
			<path class="st15" d="M175.5,300.6h6.4v9h8.3v-9h6.4v23.7h-6.4v-9.5h-8.3v9.5h-6.4V300.6z"/>
			<path class="st15" d="M200.7,300.6h6.4v23.7h-6.4V300.6z"/>
			<path class="st15" d="M211.2,300.6h6.7l6.4,11.1l2,4.2l-0.3-15.3h6.4v23.7h-6.7l-6.4-11.1l-1.9-4.2l0.3,15.3h-6.4V300.6z"/>
			<path class="st15" d="M236.4,300.6h6.4v11l8-11h7.2l-8.8,11.7l9.5,12.1h-7.8l-8-10.5v10.5h-6.4V300.6z"/>
			<path class="st15" d="M260.9,300.6h6.4v23.7h-6.4V300.6z"/>
			<path class="st15" d="M271.4,300.6h6.7l6.4,11.1l2,4.2l-0.3-15.3h6.4v23.7h-6.7l-6.4-11.1l-1.9-4.2l0.3,15.3h-6.4V300.6z"/>
			<path class="st15" d="M314.1,324.4l-0.5-2.4c-1.5,2-3.8,3-6.5,3c-6.7,0-11.2-4.7-11.2-12.5c0-7.7,4.5-12.5,11.8-12.5
				c5.3,0,9.7,2.9,10.7,8.5h-6.7c-0.6-2.2-2.1-3.3-4.2-3.3c-3.2,0-5.1,2.8-5.1,7.3c0,4.6,2,7.3,5.3,7.3c2.3,0,4.2-1.1,4.6-3.8h-4
				v-4.7h10.1v13.1H314.1z"/>
		</g>
		<g>
			<path class="st15" d="M857.9,1770.6H868c5.7,0,9.2,2.8,9.2,7.4c0,2.5-1,4.4-2.9,5.5c1,0.8,1.6,2,2,3.6l1.7,7.3h-6.6l-1.3-6.1
				c-0.4-1.9-1-2.3-2.7-2.3h-3.2v8.4h-6.4V1770.6z M864.3,1775.7v5.4h3.4c2.1,0,3-1.1,3-2.7c0-1.6-0.9-2.7-2.8-2.7H864.3z"/>
			<path class="st15" d="M881.1,1770.6h17.4v5h-11v4.2h9.6v4.9h-9.6v4.6h11v5h-17.4V1770.6z"/>
			<path class="st15" d="M916.5,1790.3h-8.6l-1.4,4.1h-6.4l8.5-23.7h7.6l8.5,23.7h-6.8L916.5,1790.3z M909.6,1785.5h5.4l-2-5.8
				l-0.7-2.8l-0.7,2.8L909.6,1785.5z"/>
			<path class="st15" d="M927,1770.6h6.4v18.6h9.9v5.2H927V1770.6z"/>
			<path class="st15" d="M946.3,1770.6h6.4v23.7h-6.4V1770.6z"/>
			<path class="st15" d="M962.7,1775.8h-7.1v-5.2h20.6v5.2h-7.1v18.6h-6.4V1775.8z"/>
			<path class="st15" d="M979.2,1770.6h6.4v23.7h-6.4V1770.6z"/>
			<path class="st15" d="M989.7,1770.6h17.4v5h-11v4.2h9.6v4.9h-9.6v4.6h11v5h-17.4V1770.6z"/>
			<path class="st15" d="M1030,1787.1c0,5-4.2,7.9-9.9,7.9c-5.8,0-10-2.7-10.8-8.3h6.7c0.4,2.2,1.9,3.4,4.1,3.4
				c2.2,0,3.3-0.8,3.3-2.2c0-4.7-13.8-1.1-13.8-10.4c0-4.2,3.4-7.5,9.5-7.5c5,0,9.5,2.4,10.2,8h-6.8c-0.4-2.1-1.6-3.1-3.6-3.1
				c-1.6,0-2.7,0.7-2.7,1.9C1016.2,1781.4,1030,1777.4,1030,1787.1z"/>
		</g>
	</g>
</g>
</svg>
