<?xml version="1.0" encoding="utf-8"?>
<!-- Generator: Adobe Illustrator 26.5.2, SVG Export Plug-In . SVG Version: 6.00 Build 0)  -->
<svg version="1.1" id="Layer_1" xmlns="http://www.w3.org/2000/svg" xmlns:xlink="http://www.w3.org/1999/xlink" x="0px" y="0px"
	 viewBox="0 0 368.5 340.1" style="enable-background:new 0 0 368.5 340.1;" xml:space="preserve">
<style type="text/css">
	.st0{fill:#666666;}
</style>
<g>
	<g id="trace_1">
		<g id="SPLINE">
			<path class="st0" d="M214.8,0.2c-2-0.9-2.7,1.7-6.1,3.6c-3.8,0.8-5.6,4.4-6.1,5.4c-0.3,1.2-1.1,1.5-1.8,1.8
				c-1.1-0.4-1.9-0.2-3.4,0c-0.9,1.6-2,2.7-4.1,4.7c-3.1,0-5.9,0.8-8.8,1.5c-2.7,1.4-5.5,0.5-6,0.4c-0.5-0.2-0.9-0.2-1.8-0.1
				c-0.6,1.1-1.4,1.8-3.7,4.1c-3.8,0-5.3,2.1-6.2,3.4c0,2.1,0,4.1-0.2,7.6c-0.4,3.1,0.1,6.1,0.8,9.9c2.2,3.6,4.3,7.2,7.2,11.9
				c2.8,4.5,5.2,9.3,6.9,12.7c1.5,3.6,2.6,7.5,3.1,9.1c0.4,1.7,1.6,3,2.4,3.8c1,0.6,1.6,1.4,3.3,3.6c-1.7,3.5-2.5,6.8-3.5,11.2
				c0.7,3.9,2.3,7.6,3.9,11.4c2.5,3.6,2.8,7.6,2.8,8.3c0,0.7,0,1.4-0.2,5c-0.4,3.5-0.3,7.1-0.2,8.9c0.2,1.8,0.7,3.5,1.6,7.5
				c1.8,3.9,5,6.4,5.5,6.8c0.6,0.4,1,0.8,2.5,2.4c0.3,2.3,1.1,4.5,2.6,8.3c3.1,3.1,3.8,6.7,4.7,10.9c-2.4,4.9-4.7,9.1-5.7,11
				c-1,1.8-1.7,3.8-2.7,6.8c-0.4,3.6,1,6,2.3,8.2c2.6,1.2,4.8,2.8,8.4,5.3c2.5,3.3,5.3,6.4,7,8.2c1.8,1.7,3.5,3.6,5.4,5.6
				c1.8,2.2,2.5,4.8,3,6.8c-0.3,2.3-0.9,4.4-2.2,8.3c-2.6,3.3-5.6,5.9-9.3,9.2c-4.3,2.3-8.8,4.6-10.7,5.6c-2,1-3.6,2.4-5,3.5
				c-1.1,1.4-2.6,2.4-6.3,5c-5.9,0.2-8.1,3.7-9,5c-0.3,1.8-0.8,3.5-2,7.3c-2.1,3.3-4.6,6.3-11.6,14.8c-9.7,6.3-19.3,11.6-23.9,14.1
				c-4.6,2.3-9.7,4.5-15.4,7c-6.4,2.4-9.8,6.3-14.6,11.8c1.2,8.6-0.3,19-1,24.3c-1.4,5.7,1.7,7.3,3.1,8.1c2.3-0.1,4.3-0.7,7.3-1.6
				c2.2-2.1,3.6-4.6,5.3-7.7c0.4-3.7,1.5-7.1,2-8.9c0.8-1.7,1.8-3.2,5-7.9c5.8-2.5,10.9-5.3,14.9-7.5c3.7-2.4,7.1-5.2,9.1-6.8
				c1.9-1.7,3.9-3.2,8-6.3c4.6-2.4,9.4-4.3,13.9-6c4.7-1.2,8.5-4.3,9.3-5.1c0.8-0.8,1.3-1.8,1.7-2.8c0-1.1,0.2-2.2,0.6-5.5
				c1.1-3.2,3.3-5.5,4.7-6.9c1.9-1,3.8-1.9,8-3.7c4.2-1,8.9-2.3,16-4.3c8.1-2.7,10.7-9.3,12.1-12.8c-0.1-4.6,2.8-6.8,4.6-8.1
				c3-0.4,4-2.3,4.5-3.3c0-1.3,0.6-2.2,0.9-2.9c0.6-0.6,1.2-1.2,3.4-3.8c0.9-3.9,0-7.1-0.7-9.4c-1.6-2-2.3-4.2-3.2-7.2
				c1-3.4,1.6-6.8,2.2-10.1c0.2-3.3-1.4-6-3-8.6c-3.3-1.9-3.8-4.7-4-5.9c0.2-1.3,0.4-2.6,1.1-8.1c-0.6-5.4,2-10.3,3-12.2
				c1.5-1.8,1.7-3.7,2-5.8c-1.2-2.3-1.9-4.5-2.3-6c-0.2-1.5-0.7-2.9-1.8-6.1c-2.6-2.7-5-5.3-7.2-7.6c-2-2.2-3.7-4.7-5.9-7.9
				c-1.7-3.6-2.3-7.4-2.7-10.3c0.2-2.9,0.6-5.7,0.9-7.4c0.4-1.7,1.1-3.5,1.4-4.4c0.4-1,0.2-1.7,0-2.5c-1-0.6-1.7-1.3-3.3-3
				c0.3-2.5,0-4.7-0.2-6.5c-0.5-1.6-1-3.2-2-6.7c-0.7-3.6-0.8-7.4-0.9-10.4c0.3-3.1-1.2-5.5-2.2-7.3c-1.9-1.4-2.8-3.2-4.1-6.1
				c1.4-3.8,0.9-7.1,0.8-7.7c-0.2-0.6-0.3-1.1-1.7-6c-1.2-4.9,0.4-10.3,1-12.2c1-2,0.6-3.4-0.1-5.7c-4.5-0.8-6.5-3.1-7-3.7
				c-0.3-0.6-0.5-1.3-1-3.1c0.5-1.9,1-3.8,1.4-5.3c0.4-1.5,1.2-2.7,2.4-4.6c2.2-1.4,3-3.3,3.5-4.5c0-2.8-1.4-6.7,1.4-9.1
				c0,0,1.9-4.3-4.1-6.8L214.8,0.2z"/>
		</g>
	</g>
	<g id="trace_2">
		<g id="CIRCLE">
			<circle class="st0" cx="5.1" cy="109.8" r="5.1"/>
		</g>
		<g id="CIRCLE-2">
			<circle class="st0" cx="21.7" cy="142.8" r="5.1"/>
		</g>
		<g id="CIRCLE-3">
			<circle class="st0" cx="149.7" cy="39.1" r="5.1"/>
		</g>
		<g id="CIRCLE-4">
			<circle class="st0" cx="148.3" cy="60.8" r="5.1"/>
		</g>
		<g id="CIRCLE-5">
			<circle class="st0" cx="164.1" cy="74.5" r="5.1"/>
		</g>
		<g id="CIRCLE-6">
			<circle class="st0" cx="149" cy="95.2" r="5.1"/>
		</g>
		<g id="CIRCLE-7">
			<circle class="st0" cx="124.1" cy="110" r="5.1"/>
		</g>
		<g id="CIRCLE-8">
			<circle class="st0" cx="107.8" cy="97.1" r="5.1"/>
		</g>
		<g id="CIRCLE-9">
			<circle class="st0" cx="91.7" cy="91.9" r="5.1"/>
		</g>
		<g id="CIRCLE-10">
			<circle class="st0" cx="94.1" cy="129.3" r="5.1"/>
		</g>
		<g id="CIRCLE-11">
			<circle class="st0" cx="112.8" cy="159.2" r="5.1"/>
		</g>
		<g id="CIRCLE-12">
			<circle class="st0" cx="139" cy="153.1" r="5.1"/>
		</g>
		<g id="CIRCLE-13">
			<circle class="st0" cx="136.6" cy="196.5" r="5.1"/>
		</g>
		<g id="CIRCLE-14">
			<circle class="st0" cx="111" cy="214.4" r="5.1"/>
		</g>
		<g id="CIRCLE-15">
			<circle class="st0" cx="139.9" cy="211.3" r="5.1"/>
		</g>
		<g id="CIRCLE-16">
			<circle class="st0" cx="164.9" cy="227.2" r="5.1"/>
		</g>
		<g id="CIRCLE-17">
			<circle class="st0" cx="41.7" cy="232.8" r="5.1"/>
		</g>
		<g id="CIRCLE-18">
			<circle class="st0" cx="69.1" cy="251.5" r="5.1"/>
		</g>
		<g id="CIRCLE-19">
			<circle class="st0" cx="70.1" cy="300.9" r="5.1"/>
		</g>
		<g id="CIRCLE-20">
			<circle class="st0" cx="112.1" cy="287.6" r="5.1"/>
		</g>
		<g id="CIRCLE-21">
			<circle class="st0" cx="108.8" cy="270.3" r="5.1"/>
		</g>
		<g id="CIRCLE-22">
			<circle class="st0" cx="100.3" cy="320.6" r="5.1"/>
		</g>
		<g id="CIRCLE-23">
			<circle class="st0" cx="185" cy="302" r="5.1"/>
		</g>
		<g id="CIRCLE-24">
			<circle class="st0" cx="233" cy="32.1" r="5.1"/>
		</g>
		<g id="CIRCLE-25">
			<circle class="st0" cx="294.2" cy="30.5" r="5.1"/>
		</g>
		<g id="CIRCLE-26">
			<circle class="st0" cx="261.1" cy="34.1" r="5.1"/>
		</g>
		<g id="CIRCLE-27">
			<circle class="st0" cx="272.6" cy="78.6" r="5.1"/>
		</g>
		<g id="CIRCLE-28">
			<circle class="st0" cx="307.4" cy="66.4" r="5.1"/>
		</g>
		<g id="CIRCLE-29">
			<circle class="st0" cx="259.1" cy="113.9" r="5.1"/>
		</g>
		<g id="CIRCLE-30">
			<circle class="st0" cx="322.7" cy="87.7" r="5.1"/>
		</g>
		<g id="CIRCLE-31">
			<circle class="st0" cx="332.6" cy="100.9" r="5.1"/>
		</g>
		<g id="CIRCLE-32">
			<circle class="st0" cx="307.1" cy="116" r="5.1"/>
		</g>
		<g id="CIRCLE-33">
			<circle class="st0" cx="311.7" cy="135.6" r="5.1"/>
		</g>
		<g id="CIRCLE-34">
			<circle class="st0" cx="284.2" cy="158.9" r="5.1"/>
		</g>
		<g id="CIRCLE-35">
			<circle class="st0" cx="266.7" cy="156.5" r="5.1"/>
		</g>
		<g id="CIRCLE-36">
			<circle class="st0" cx="270.8" cy="202.6" r="5.1"/>
		</g>
		<g id="CIRCLE-37">
			<circle class="st0" cx="315.8" cy="215.9" r="5.1"/>
		</g>
		<g id="CIRCLE-38">
			<circle class="st0" cx="357.3" cy="261.8" r="5.1"/>
		</g>
		<g id="CIRCLE-39">
			<circle class="st0" cx="344.5" cy="278" r="5.1"/>
		</g>
		<g id="CIRCLE-40">
			<circle class="st0" cx="317.2" cy="278.7" r="5.1"/>
		</g>
		<g id="CIRCLE-41">
			<circle class="st0" cx="249" cy="268.5" r="5.1"/>
		</g>
		<g id="CIRCLE-42">
			<circle class="st0" cx="363.4" cy="174.1" r="5.1"/>
		</g>
		<g id="CIRCLE-43">
			<circle class="st0" cx="342.9" cy="146.4" r="5.1"/>
		</g>
		<g id="CIRCLE-44">
			<circle class="st0" cx="359.6" cy="113.4" r="5.1"/>
		</g>
	</g>
</g>
</svg>
